<mxfile host="app.diagrams.net" modified="2023-05-02T23:43:00.384Z" agent="Mozilla/5.0 (Windows NT 10.0; Win64; x64) AppleWebKit/537.36 (KHTML, like Gecko) Chrome/112.0.0.0 Safari/537.36" etag="Mi7xiky13BM2XLKW31My" version="21.2.4" type="device">
  <diagram name="Page-1" id="93RGS-LMaWcCATeLpVef">
    <mxGraphModel dx="1985" dy="815" grid="1" gridSize="10" guides="1" tooltips="1" connect="1" arrows="1" fold="1" page="1" pageScale="1" pageWidth="850" pageHeight="1100" math="0" shadow="0">
      <root>
        <mxCell id="0" />
        <mxCell id="1" parent="0" />
        <mxCell id="kJzm9HlkEtrdpvfUeE9o-26" style="rounded=0;orthogonalLoop=1;jettySize=auto;html=1;exitX=0.5;exitY=1;exitDx=0;exitDy=0;entryX=0.5;entryY=0;entryDx=0;entryDy=0;" parent="1" source="kJzm9HlkEtrdpvfUeE9o-1" target="kJzm9HlkEtrdpvfUeE9o-2" edge="1">
          <mxGeometry relative="1" as="geometry" />
        </mxCell>
        <mxCell id="kJzm9HlkEtrdpvfUeE9o-27" style="rounded=0;orthogonalLoop=1;jettySize=auto;html=1;exitX=0.5;exitY=1;exitDx=0;exitDy=0;entryX=0.5;entryY=0;entryDx=0;entryDy=0;" parent="1" source="kJzm9HlkEtrdpvfUeE9o-1" target="kJzm9HlkEtrdpvfUeE9o-3" edge="1">
          <mxGeometry relative="1" as="geometry" />
        </mxCell>
        <mxCell id="Vzyf8HZ6iJvRI1nceQj--1" value="" style="edgeStyle=orthogonalEdgeStyle;rounded=0;orthogonalLoop=1;jettySize=auto;html=1;" edge="1" parent="1" source="kJzm9HlkEtrdpvfUeE9o-1" target="kJzm9HlkEtrdpvfUeE9o-4">
          <mxGeometry relative="1" as="geometry" />
        </mxCell>
        <mxCell id="kJzm9HlkEtrdpvfUeE9o-1" value="&amp;lt;compare&amp;gt;" style="ellipse;whiteSpace=wrap;html=1;" parent="1" vertex="1">
          <mxGeometry x="360" width="120" height="80" as="geometry" />
        </mxCell>
        <mxCell id="kJzm9HlkEtrdpvfUeE9o-28" value="" style="edgeStyle=orthogonalEdgeStyle;rounded=0;orthogonalLoop=1;jettySize=auto;html=1;" parent="1" source="kJzm9HlkEtrdpvfUeE9o-2" target="kJzm9HlkEtrdpvfUeE9o-5" edge="1">
          <mxGeometry relative="1" as="geometry" />
        </mxCell>
        <mxCell id="kJzm9HlkEtrdpvfUeE9o-2" value="&amp;lt;boolexpr&amp;gt;" style="ellipse;whiteSpace=wrap;html=1;" parent="1" vertex="1">
          <mxGeometry x="280" y="120" width="120" height="80" as="geometry" />
        </mxCell>
        <mxCell id="kJzm9HlkEtrdpvfUeE9o-30" value="" style="edgeStyle=orthogonalEdgeStyle;rounded=0;orthogonalLoop=1;jettySize=auto;html=1;" parent="1" source="kJzm9HlkEtrdpvfUeE9o-3" target="kJzm9HlkEtrdpvfUeE9o-7" edge="1">
          <mxGeometry relative="1" as="geometry" />
        </mxCell>
        <mxCell id="kJzm9HlkEtrdpvfUeE9o-33" style="rounded=0;orthogonalLoop=1;jettySize=auto;html=1;exitX=0.5;exitY=1;exitDx=0;exitDy=0;entryX=0.5;entryY=0;entryDx=0;entryDy=0;" parent="1" source="kJzm9HlkEtrdpvfUeE9o-3" target="kJzm9HlkEtrdpvfUeE9o-8" edge="1">
          <mxGeometry relative="1" as="geometry" />
        </mxCell>
        <mxCell id="Vzyf8HZ6iJvRI1nceQj--2" style="rounded=0;orthogonalLoop=1;jettySize=auto;html=1;exitX=0.5;exitY=1;exitDx=0;exitDy=0;entryX=0.5;entryY=0;entryDx=0;entryDy=0;" edge="1" parent="1" source="kJzm9HlkEtrdpvfUeE9o-3" target="kJzm9HlkEtrdpvfUeE9o-9">
          <mxGeometry relative="1" as="geometry" />
        </mxCell>
        <mxCell id="kJzm9HlkEtrdpvfUeE9o-3" value="&amp;lt;boolexpr&amp;gt;" style="ellipse;whiteSpace=wrap;html=1;" parent="1" vertex="1">
          <mxGeometry x="440" y="120" width="120" height="80" as="geometry" />
        </mxCell>
        <mxCell id="kJzm9HlkEtrdpvfUeE9o-4" value="==" style="text;html=1;strokeColor=none;fillColor=none;align=center;verticalAlign=middle;whiteSpace=wrap;rounded=0;" parent="1" vertex="1">
          <mxGeometry x="390" y="145" width="60" height="30" as="geometry" />
        </mxCell>
        <mxCell id="kJzm9HlkEtrdpvfUeE9o-29" value="" style="edgeStyle=orthogonalEdgeStyle;rounded=0;orthogonalLoop=1;jettySize=auto;html=1;" parent="1" source="kJzm9HlkEtrdpvfUeE9o-5" target="kJzm9HlkEtrdpvfUeE9o-17" edge="1">
          <mxGeometry relative="1" as="geometry" />
        </mxCell>
        <mxCell id="kJzm9HlkEtrdpvfUeE9o-5" value="&amp;lt;boolvar&amp;gt;" style="ellipse;whiteSpace=wrap;html=1;" parent="1" vertex="1">
          <mxGeometry x="280" y="240" width="120" height="80" as="geometry" />
        </mxCell>
        <mxCell id="kJzm9HlkEtrdpvfUeE9o-31" value="" style="edgeStyle=orthogonalEdgeStyle;rounded=0;orthogonalLoop=1;jettySize=auto;html=1;" parent="1" source="kJzm9HlkEtrdpvfUeE9o-7" target="kJzm9HlkEtrdpvfUeE9o-18" edge="1">
          <mxGeometry relative="1" as="geometry" />
        </mxCell>
        <mxCell id="kJzm9HlkEtrdpvfUeE9o-7" value="&amp;lt;boolexpr&amp;gt;" style="ellipse;whiteSpace=wrap;html=1;" parent="1" vertex="1">
          <mxGeometry x="440" y="240" width="120" height="80" as="geometry" />
        </mxCell>
        <mxCell id="kJzm9HlkEtrdpvfUeE9o-34" value="" style="edgeStyle=orthogonalEdgeStyle;rounded=0;orthogonalLoop=1;jettySize=auto;html=1;" parent="1" source="kJzm9HlkEtrdpvfUeE9o-8" edge="1">
          <mxGeometry relative="1" as="geometry">
            <mxPoint x="660" y="360" as="targetPoint" />
          </mxGeometry>
        </mxCell>
        <mxCell id="kJzm9HlkEtrdpvfUeE9o-40" style="rounded=0;orthogonalLoop=1;jettySize=auto;html=1;exitX=0.5;exitY=1;exitDx=0;exitDy=0;entryX=0.5;entryY=0;entryDx=0;entryDy=0;" parent="1" source="kJzm9HlkEtrdpvfUeE9o-8" target="kJzm9HlkEtrdpvfUeE9o-38" edge="1">
          <mxGeometry relative="1" as="geometry" />
        </mxCell>
        <mxCell id="Vzyf8HZ6iJvRI1nceQj--5" style="rounded=0;orthogonalLoop=1;jettySize=auto;html=1;exitX=0.5;exitY=1;exitDx=0;exitDy=0;entryX=0.5;entryY=0;entryDx=0;entryDy=0;" edge="1" parent="1" source="kJzm9HlkEtrdpvfUeE9o-8" target="kJzm9HlkEtrdpvfUeE9o-39">
          <mxGeometry relative="1" as="geometry" />
        </mxCell>
        <mxCell id="kJzm9HlkEtrdpvfUeE9o-8" value="&amp;lt;boolexpr&amp;gt;" style="ellipse;whiteSpace=wrap;html=1;" parent="1" vertex="1">
          <mxGeometry x="600" y="240" width="120" height="80" as="geometry" />
        </mxCell>
        <mxCell id="kJzm9HlkEtrdpvfUeE9o-9" value="&amp;amp;&amp;amp;" style="text;html=1;strokeColor=none;fillColor=none;align=center;verticalAlign=middle;whiteSpace=wrap;rounded=0;" parent="1" vertex="1">
          <mxGeometry x="550" y="265" width="60" height="30" as="geometry" />
        </mxCell>
        <mxCell id="kJzm9HlkEtrdpvfUeE9o-17" value="x" style="ellipse;whiteSpace=wrap;html=1;" parent="1" vertex="1">
          <mxGeometry x="281" y="360" width="120" height="80" as="geometry" />
        </mxCell>
        <mxCell id="kJzm9HlkEtrdpvfUeE9o-32" value="" style="edgeStyle=orthogonalEdgeStyle;rounded=0;orthogonalLoop=1;jettySize=auto;html=1;" parent="1" source="kJzm9HlkEtrdpvfUeE9o-18" target="kJzm9HlkEtrdpvfUeE9o-22" edge="1">
          <mxGeometry relative="1" as="geometry" />
        </mxCell>
        <mxCell id="kJzm9HlkEtrdpvfUeE9o-18" value="&amp;lt;boolvalue&amp;gt;" style="ellipse;whiteSpace=wrap;html=1;" parent="1" vertex="1">
          <mxGeometry x="440" y="360" width="120" height="80" as="geometry" />
        </mxCell>
        <mxCell id="kJzm9HlkEtrdpvfUeE9o-22" value="True" style="ellipse;whiteSpace=wrap;html=1;" parent="1" vertex="1">
          <mxGeometry x="440" y="480" width="120" height="80" as="geometry" />
        </mxCell>
        <mxCell id="kJzm9HlkEtrdpvfUeE9o-37" value="&amp;lt;boolexpr&amp;gt;" style="ellipse;whiteSpace=wrap;html=1;" parent="1" vertex="1">
          <mxGeometry x="600" y="360" width="120" height="80" as="geometry" />
        </mxCell>
        <mxCell id="kJzm9HlkEtrdpvfUeE9o-38" value="&amp;lt;boolexpr&amp;gt;" style="ellipse;whiteSpace=wrap;html=1;" parent="1" vertex="1">
          <mxGeometry x="760" y="360" width="120" height="80" as="geometry" />
        </mxCell>
        <mxCell id="kJzm9HlkEtrdpvfUeE9o-39" value="&amp;amp;&amp;amp;" style="text;html=1;strokeColor=none;fillColor=none;align=center;verticalAlign=middle;whiteSpace=wrap;rounded=0;" parent="1" vertex="1">
          <mxGeometry x="710" y="385" width="60" height="30" as="geometry" />
        </mxCell>
        <mxCell id="kJzm9HlkEtrdpvfUeE9o-41" value="" style="edgeStyle=orthogonalEdgeStyle;rounded=0;orthogonalLoop=1;jettySize=auto;html=1;" parent="1" target="kJzm9HlkEtrdpvfUeE9o-43" edge="1">
          <mxGeometry relative="1" as="geometry">
            <mxPoint x="660" y="440" as="sourcePoint" />
          </mxGeometry>
        </mxCell>
        <mxCell id="kJzm9HlkEtrdpvfUeE9o-42" value="" style="edgeStyle=orthogonalEdgeStyle;rounded=0;orthogonalLoop=1;jettySize=auto;html=1;" parent="1" source="kJzm9HlkEtrdpvfUeE9o-43" target="kJzm9HlkEtrdpvfUeE9o-44" edge="1">
          <mxGeometry relative="1" as="geometry" />
        </mxCell>
        <mxCell id="kJzm9HlkEtrdpvfUeE9o-43" value="&amp;lt;boolvalue&amp;gt;" style="ellipse;whiteSpace=wrap;html=1;" parent="1" vertex="1">
          <mxGeometry x="600" y="480" width="120" height="80" as="geometry" />
        </mxCell>
        <mxCell id="kJzm9HlkEtrdpvfUeE9o-44" value="True" style="ellipse;whiteSpace=wrap;html=1;" parent="1" vertex="1">
          <mxGeometry x="600" y="600" width="120" height="80" as="geometry" />
        </mxCell>
        <mxCell id="kJzm9HlkEtrdpvfUeE9o-45" value="" style="edgeStyle=orthogonalEdgeStyle;rounded=0;orthogonalLoop=1;jettySize=auto;html=1;" parent="1" target="kJzm9HlkEtrdpvfUeE9o-47" edge="1">
          <mxGeometry relative="1" as="geometry">
            <mxPoint x="820" y="440" as="sourcePoint" />
          </mxGeometry>
        </mxCell>
        <mxCell id="kJzm9HlkEtrdpvfUeE9o-46" value="" style="edgeStyle=orthogonalEdgeStyle;rounded=0;orthogonalLoop=1;jettySize=auto;html=1;" parent="1" source="kJzm9HlkEtrdpvfUeE9o-47" target="kJzm9HlkEtrdpvfUeE9o-48" edge="1">
          <mxGeometry relative="1" as="geometry" />
        </mxCell>
        <mxCell id="kJzm9HlkEtrdpvfUeE9o-47" value="&amp;lt;boolvalue&amp;gt;" style="ellipse;whiteSpace=wrap;html=1;" parent="1" vertex="1">
          <mxGeometry x="760" y="480" width="120" height="80" as="geometry" />
        </mxCell>
        <mxCell id="kJzm9HlkEtrdpvfUeE9o-48" value="True" style="ellipse;whiteSpace=wrap;html=1;" parent="1" vertex="1">
          <mxGeometry x="760" y="600" width="120" height="80" as="geometry" />
        </mxCell>
        <mxCell id="kJzm9HlkEtrdpvfUeE9o-51" style="rounded=0;orthogonalLoop=1;jettySize=auto;html=1;exitX=0.5;exitY=1;exitDx=0;exitDy=0;entryX=0.5;entryY=0;entryDx=0;entryDy=0;" parent="1" source="kJzm9HlkEtrdpvfUeE9o-53" target="kJzm9HlkEtrdpvfUeE9o-55" edge="1">
          <mxGeometry relative="1" as="geometry" />
        </mxCell>
        <mxCell id="kJzm9HlkEtrdpvfUeE9o-52" style="rounded=0;orthogonalLoop=1;jettySize=auto;html=1;exitX=0.5;exitY=1;exitDx=0;exitDy=0;entryX=0.5;entryY=0;entryDx=0;entryDy=0;" parent="1" source="kJzm9HlkEtrdpvfUeE9o-53" target="kJzm9HlkEtrdpvfUeE9o-58" edge="1">
          <mxGeometry relative="1" as="geometry" />
        </mxCell>
        <mxCell id="Vzyf8HZ6iJvRI1nceQj--3" value="" style="edgeStyle=orthogonalEdgeStyle;rounded=0;orthogonalLoop=1;jettySize=auto;html=1;" edge="1" parent="1" source="kJzm9HlkEtrdpvfUeE9o-53" target="kJzm9HlkEtrdpvfUeE9o-59">
          <mxGeometry relative="1" as="geometry" />
        </mxCell>
        <mxCell id="kJzm9HlkEtrdpvfUeE9o-53" value="&amp;lt;compare&amp;gt;" style="ellipse;whiteSpace=wrap;html=1;" parent="1" vertex="1">
          <mxGeometry x="1000" width="120" height="80" as="geometry" />
        </mxCell>
        <mxCell id="kJzm9HlkEtrdpvfUeE9o-54" value="" style="edgeStyle=orthogonalEdgeStyle;rounded=0;orthogonalLoop=1;jettySize=auto;html=1;" parent="1" source="kJzm9HlkEtrdpvfUeE9o-55" target="kJzm9HlkEtrdpvfUeE9o-61" edge="1">
          <mxGeometry relative="1" as="geometry" />
        </mxCell>
        <mxCell id="kJzm9HlkEtrdpvfUeE9o-55" value="&amp;lt;boolexpr&amp;gt;" style="ellipse;whiteSpace=wrap;html=1;" parent="1" vertex="1">
          <mxGeometry x="920" y="120" width="120" height="80" as="geometry" />
        </mxCell>
        <mxCell id="kJzm9HlkEtrdpvfUeE9o-56" value="" style="edgeStyle=orthogonalEdgeStyle;rounded=0;orthogonalLoop=1;jettySize=auto;html=1;" parent="1" source="kJzm9HlkEtrdpvfUeE9o-58" target="kJzm9HlkEtrdpvfUeE9o-63" edge="1">
          <mxGeometry relative="1" as="geometry" />
        </mxCell>
        <mxCell id="kJzm9HlkEtrdpvfUeE9o-57" style="rounded=0;orthogonalLoop=1;jettySize=auto;html=1;exitX=0.5;exitY=1;exitDx=0;exitDy=0;entryX=0.5;entryY=0;entryDx=0;entryDy=0;" parent="1" source="kJzm9HlkEtrdpvfUeE9o-58" target="kJzm9HlkEtrdpvfUeE9o-66" edge="1">
          <mxGeometry relative="1" as="geometry" />
        </mxCell>
        <mxCell id="Vzyf8HZ6iJvRI1nceQj--4" style="rounded=0;orthogonalLoop=1;jettySize=auto;html=1;exitX=0.5;exitY=1;exitDx=0;exitDy=0;entryX=0.5;entryY=0;entryDx=0;entryDy=0;" edge="1" parent="1" source="kJzm9HlkEtrdpvfUeE9o-58" target="kJzm9HlkEtrdpvfUeE9o-67">
          <mxGeometry relative="1" as="geometry" />
        </mxCell>
        <mxCell id="kJzm9HlkEtrdpvfUeE9o-58" value="&amp;lt;boolexpr&amp;gt;" style="ellipse;whiteSpace=wrap;html=1;" parent="1" vertex="1">
          <mxGeometry x="1080" y="120" width="120" height="80" as="geometry" />
        </mxCell>
        <mxCell id="kJzm9HlkEtrdpvfUeE9o-59" value="==" style="text;html=1;strokeColor=none;fillColor=none;align=center;verticalAlign=middle;whiteSpace=wrap;rounded=0;" parent="1" vertex="1">
          <mxGeometry x="1030" y="145" width="60" height="30" as="geometry" />
        </mxCell>
        <mxCell id="kJzm9HlkEtrdpvfUeE9o-60" value="" style="edgeStyle=orthogonalEdgeStyle;rounded=0;orthogonalLoop=1;jettySize=auto;html=1;" parent="1" source="kJzm9HlkEtrdpvfUeE9o-61" target="kJzm9HlkEtrdpvfUeE9o-69" edge="1">
          <mxGeometry relative="1" as="geometry" />
        </mxCell>
        <mxCell id="kJzm9HlkEtrdpvfUeE9o-61" value="&amp;lt;boolvar&amp;gt;" style="ellipse;whiteSpace=wrap;html=1;" parent="1" vertex="1">
          <mxGeometry x="920" y="240" width="120" height="80" as="geometry" />
        </mxCell>
        <mxCell id="Vzyf8HZ6iJvRI1nceQj--6" style="rounded=0;orthogonalLoop=1;jettySize=auto;html=1;exitX=0.5;exitY=1;exitDx=0;exitDy=0;entryX=0.5;entryY=0;entryDx=0;entryDy=0;" edge="1" parent="1" source="kJzm9HlkEtrdpvfUeE9o-63" target="kJzm9HlkEtrdpvfUeE9o-94">
          <mxGeometry relative="1" as="geometry" />
        </mxCell>
        <mxCell id="kJzm9HlkEtrdpvfUeE9o-63" value="&amp;lt;boolexpr&amp;gt;" style="ellipse;whiteSpace=wrap;html=1;" parent="1" vertex="1">
          <mxGeometry x="1080" y="240" width="120" height="80" as="geometry" />
        </mxCell>
        <mxCell id="kJzm9HlkEtrdpvfUeE9o-66" value="&amp;lt;boolexpr&amp;gt;" style="ellipse;whiteSpace=wrap;html=1;" parent="1" vertex="1">
          <mxGeometry x="1400" y="240" width="120" height="80" as="geometry" />
        </mxCell>
        <mxCell id="kJzm9HlkEtrdpvfUeE9o-67" value="&amp;amp;&amp;amp;" style="text;html=1;strokeColor=none;fillColor=none;align=center;verticalAlign=middle;whiteSpace=wrap;rounded=0;" parent="1" vertex="1">
          <mxGeometry x="1270" y="265" width="60" height="30" as="geometry" />
        </mxCell>
        <mxCell id="kJzm9HlkEtrdpvfUeE9o-69" value="x" style="ellipse;whiteSpace=wrap;html=1;" parent="1" vertex="1">
          <mxGeometry x="921" y="360" width="120" height="80" as="geometry" />
        </mxCell>
        <mxCell id="kJzm9HlkEtrdpvfUeE9o-90" value="" style="edgeStyle=orthogonalEdgeStyle;rounded=0;orthogonalLoop=1;jettySize=auto;html=1;" parent="1" edge="1">
          <mxGeometry relative="1" as="geometry">
            <mxPoint x="1140" y="360" as="targetPoint" />
            <mxPoint x="1140" y="320" as="sourcePoint" />
          </mxGeometry>
        </mxCell>
        <mxCell id="kJzm9HlkEtrdpvfUeE9o-91" style="rounded=0;orthogonalLoop=1;jettySize=auto;html=1;exitX=0.5;exitY=1;exitDx=0;exitDy=0;entryX=0.5;entryY=0;entryDx=0;entryDy=0;" parent="1" target="kJzm9HlkEtrdpvfUeE9o-93" edge="1">
          <mxGeometry relative="1" as="geometry">
            <mxPoint x="1140" y="320" as="sourcePoint" />
          </mxGeometry>
        </mxCell>
        <mxCell id="kJzm9HlkEtrdpvfUeE9o-92" value="&amp;lt;boolexpr&amp;gt;" style="ellipse;whiteSpace=wrap;html=1;" parent="1" vertex="1">
          <mxGeometry x="1080" y="360" width="120" height="80" as="geometry" />
        </mxCell>
        <mxCell id="kJzm9HlkEtrdpvfUeE9o-93" value="&amp;lt;boolexpr&amp;gt;" style="ellipse;whiteSpace=wrap;html=1;" parent="1" vertex="1">
          <mxGeometry x="1240" y="360" width="120" height="80" as="geometry" />
        </mxCell>
        <mxCell id="kJzm9HlkEtrdpvfUeE9o-94" value="&amp;amp;&amp;amp;" style="text;html=1;strokeColor=none;fillColor=none;align=center;verticalAlign=middle;whiteSpace=wrap;rounded=0;" parent="1" vertex="1">
          <mxGeometry x="1190" y="385" width="60" height="30" as="geometry" />
        </mxCell>
        <mxCell id="kJzm9HlkEtrdpvfUeE9o-95" value="" style="edgeStyle=orthogonalEdgeStyle;rounded=0;orthogonalLoop=1;jettySize=auto;html=1;" parent="1" target="kJzm9HlkEtrdpvfUeE9o-97" edge="1">
          <mxGeometry relative="1" as="geometry">
            <mxPoint x="1140" y="440" as="sourcePoint" />
          </mxGeometry>
        </mxCell>
        <mxCell id="kJzm9HlkEtrdpvfUeE9o-96" value="" style="edgeStyle=orthogonalEdgeStyle;rounded=0;orthogonalLoop=1;jettySize=auto;html=1;" parent="1" source="kJzm9HlkEtrdpvfUeE9o-97" target="kJzm9HlkEtrdpvfUeE9o-98" edge="1">
          <mxGeometry relative="1" as="geometry" />
        </mxCell>
        <mxCell id="kJzm9HlkEtrdpvfUeE9o-97" value="&amp;lt;boolvalue&amp;gt;" style="ellipse;whiteSpace=wrap;html=1;" parent="1" vertex="1">
          <mxGeometry x="1080" y="480" width="120" height="80" as="geometry" />
        </mxCell>
        <mxCell id="kJzm9HlkEtrdpvfUeE9o-98" value="True" style="ellipse;whiteSpace=wrap;html=1;" parent="1" vertex="1">
          <mxGeometry x="1080" y="600" width="120" height="80" as="geometry" />
        </mxCell>
        <mxCell id="kJzm9HlkEtrdpvfUeE9o-99" value="" style="edgeStyle=orthogonalEdgeStyle;rounded=0;orthogonalLoop=1;jettySize=auto;html=1;" parent="1" target="kJzm9HlkEtrdpvfUeE9o-101" edge="1">
          <mxGeometry relative="1" as="geometry">
            <mxPoint x="1300" y="440" as="sourcePoint" />
          </mxGeometry>
        </mxCell>
        <mxCell id="kJzm9HlkEtrdpvfUeE9o-100" value="" style="edgeStyle=orthogonalEdgeStyle;rounded=0;orthogonalLoop=1;jettySize=auto;html=1;" parent="1" source="kJzm9HlkEtrdpvfUeE9o-101" target="kJzm9HlkEtrdpvfUeE9o-102" edge="1">
          <mxGeometry relative="1" as="geometry" />
        </mxCell>
        <mxCell id="kJzm9HlkEtrdpvfUeE9o-101" value="&amp;lt;boolvalue&amp;gt;" style="ellipse;whiteSpace=wrap;html=1;" parent="1" vertex="1">
          <mxGeometry x="1240" y="480" width="120" height="80" as="geometry" />
        </mxCell>
        <mxCell id="kJzm9HlkEtrdpvfUeE9o-102" value="True" style="ellipse;whiteSpace=wrap;html=1;" parent="1" vertex="1">
          <mxGeometry x="1240" y="600" width="120" height="80" as="geometry" />
        </mxCell>
        <mxCell id="kJzm9HlkEtrdpvfUeE9o-107" value="" style="edgeStyle=orthogonalEdgeStyle;rounded=0;orthogonalLoop=1;jettySize=auto;html=1;" parent="1" target="kJzm9HlkEtrdpvfUeE9o-109" edge="1">
          <mxGeometry relative="1" as="geometry">
            <mxPoint x="1460" y="320" as="sourcePoint" />
          </mxGeometry>
        </mxCell>
        <mxCell id="kJzm9HlkEtrdpvfUeE9o-108" value="" style="edgeStyle=orthogonalEdgeStyle;rounded=0;orthogonalLoop=1;jettySize=auto;html=1;" parent="1" source="kJzm9HlkEtrdpvfUeE9o-109" target="kJzm9HlkEtrdpvfUeE9o-110" edge="1">
          <mxGeometry relative="1" as="geometry" />
        </mxCell>
        <mxCell id="kJzm9HlkEtrdpvfUeE9o-109" value="&amp;lt;boolvalue&amp;gt;" style="ellipse;whiteSpace=wrap;html=1;" parent="1" vertex="1">
          <mxGeometry x="1400" y="360" width="120" height="80" as="geometry" />
        </mxCell>
        <mxCell id="kJzm9HlkEtrdpvfUeE9o-110" value="True" style="ellipse;whiteSpace=wrap;html=1;" parent="1" vertex="1">
          <mxGeometry x="1400" y="480" width="120" height="80" as="geometry" />
        </mxCell>
      </root>
    </mxGraphModel>
  </diagram>
</mxfile>
